<?xml version="1.0" encoding="UTF-8"?>
<svg width="32px" height="32px" viewBox="0 0 32 32" version="1.1" xmlns="http://www.w3.org/2000/svg" xmlns:xlink="http://www.w3.org/1999/xlink">
    <title>F4AAB2C0-0CB5-4F35-B31C-44C6001D0DD7</title>
    <g id="Overview-+-Profile-[Phase-1]" stroke="none" stroke-width="1" fill="none" fill-rule="evenodd">
        <g id="desktop---tc---profile" transform="translate(-271.000000, -192.000000)" fill="#30C6E2" fill-rule="nonzero">
            <g id="user-icn/active" transform="translate(271.000000, 192.000000)">
                <path d="M16,0 C7.16129032,0 0,7.16129032 0,16 C0,24.8387097 7.16129032,32 16,32 C24.8387097,32 32,24.8387097 32,16 C32,7.16129032 24.8387097,0 16,0 Z M16,6.19354839 C19.1355521,6.19354839 21.6774194,8.73541561 21.6774194,11.8709677 C21.6774194,15.0065199 19.1355521,17.5483871 16,17.5483871 C12.8644479,17.5483871 10.3225806,15.0065199 10.3225806,11.8709677 C10.3225806,8.73541561 12.8644479,6.19354839 16,6.19354839 Z M16,28.3870968 C12.3548362,28.3856611 8.89612284,26.7755297 6.5483871,23.9870968 C7.76129032,21.7032258 10.1354839,20.1290323 12.9032258,20.1290323 C13.0585523,20.1302915 13.2128647,20.154199 13.3612903,20.2 C15.0703647,20.7935389 16.9296353,20.7935389 18.6387097,20.2 C18.7871353,20.154199 18.9414477,20.1302915 19.0967742,20.1290323 C21.8645161,20.1290323 24.2387097,21.7032258 25.4516129,23.9870968 C23.1038772,26.7755297 19.6451638,28.3856611 16,28.3870968 Z" id="Shape" opacity="0.4"></path>
                <path d="M16,17.5483871 C19.1355521,17.5483871 21.6774194,15.0065199 21.6774194,11.8709677 C21.6774194,8.73541561 19.1355521,6.19354839 16,6.19354839 C12.8644479,6.19354839 10.3225806,8.73541561 10.3225806,11.8709677 C10.3225806,15.0065199 12.8644479,17.5483871 16,17.5483871 Z M19.0967742,20.1290323 C18.9414477,20.1302915 18.7871353,20.154199 18.6387097,20.2 C16.9296353,20.7935389 15.0703647,20.7935389 13.3612903,20.2 C13.2128647,20.154199 13.0585523,20.1302915 12.9032258,20.1290323 C10.1354839,20.1290323 7.76129032,21.7032258 6.5483871,23.9870968 C10.94,29.2070968 18.7316129,29.8787097 23.9516129,25.4870968 C24.4935849,25.0309085 24.9954246,24.5290688 25.4516129,23.9870968 C24.2387097,21.7032258 21.8645161,20.1290323 19.0967742,20.1290323 Z" id="Shape"></path>
            </g>
        </g>
    </g>
</svg>