<?xml version="1.0" encoding="UTF-8"?>
<svg width="30px" height="27px" viewBox="0 0 30 27" version="1.1" xmlns="http://www.w3.org/2000/svg" xmlns:xlink="http://www.w3.org/1999/xlink">
    <title>259AD368-A70F-4220-846C-9EF21E580BE9</title>
    <g id="Overview-+-Profile-[Phase-1]" stroke="none" stroke-width="1" fill="none" fill-rule="evenodd">
        <g id="desktop---tc---profile" transform="translate(-272.000000, -450.000000)" fill="#30C6E2" fill-rule="nonzero">
            <g id="contact" transform="translate(272.000000, 450.000000)">
                <path d="M15,21 L15,24.75 C15,25.9926407 16.0073593,27 17.25,27 L27.75,27 C28.9926407,27 30,25.9926407 30,24.75 L30,21 L15,21 Z M22.5,25.5 C21.6715729,25.5 21,24.8284271 21,24 C21,23.1715729 21.6715729,22.5 22.5,22.5 C23.3284271,22.5 24,23.1715729 24,24 C24,24.8284271 23.3284271,25.5 22.5,25.5 Z" id="Shape" opacity="0.4"></path>
                <path d="M15,21 L15,5.25 C15,4.00735931 16.0073593,3 17.25,3 L27.75,3 C28.9926407,3 30,4.00735931 30,5.25 L30,21 L15,21 Z" id="Path"></path>
                <path d="M10.0183594,11.25 L9.98164063,11.25 C8.80585938,11.25 7.621875,10.3351563 6.75742188,9.6671875 C6.61679687,9.55859375 0.967578125,5.41796875 0,4.66132813 L0,13.125 C0,14.1605339 0.839466094,15 1.875,15 L18.125,15 C19.1605339,15 20,14.1605339 20,13.125 L20,4.6625 C19.0445313,5.41132813 13.3828125,9.55859375 13.2421875,9.6671875 C12.378125,10.3351563 11.1941406,11.25 10.0183594,11.25 Z M18.125,0 L1.875,0 C0.839466094,0 0,0.839466094 0,1.875 L0,2.6171875 C0.000386720847,2.90533583 0.132825142,3.17741041 0.359375,3.35546875 C1.5546875,4.2890625 1.94921875,4.62109375 7.1328125,8.3828125 C7.7890625,8.859375 9.09375,10.015625 10,10 C10.90625,10.015625 12.2109375,8.859375 12.8671875,8.3828125 C18.0507813,4.62109375 18.4453125,4.29296875 19.640625,3.35546875 C19.867875,3.17797616 20.0004905,2.90553791 20,2.6171875 L20,1.875 C20,0.839466094 19.1605339,0 18.125,0 Z" id="Shape" opacity="0.4"></path>
                <path d="M20,2.6171875 L20,4.6625 C19.0445313,5.41132813 13.3828125,9.55859375 13.2421875,9.6671875 C12.378125,10.3351563 11.1941406,11.25 10.0183594,11.25 L9.98164063,11.25 C8.80585938,11.25 7.621875,10.3351563 6.75742188,9.6671875 C6.61679688,9.55859375 0.967578125,5.41796875 0,4.66132813 L0,2.6171875 C0.000386720847,2.90533583 0.132825142,3.17741041 0.359375,3.35546875 C1.5546875,4.2890625 1.94921875,4.62109375 7.1328125,8.3828125 C7.78476563,8.85625 9.07617188,10 9.98164063,10 L10.0183594,10 C10.9238281,10 12.2152344,8.85625 12.8671875,8.3828125 C18.0507813,4.62109375 18.4453125,4.29296875 19.640625,3.35546875 C19.867875,3.17797616 20.0004905,2.90553791 20,2.6171875 Z" id="Path"></path>
            </g>
        </g>
    </g>
</svg>