<?xml version="1.0" encoding="UTF-8"?>
<svg width="24px" height="18px" viewBox="0 0 24 18" version="1.1" xmlns="http://www.w3.org/2000/svg" xmlns:xlink="http://www.w3.org/1999/xlink">
    <!-- Generator: sketchtool 55.1 (78136) - https://sketchapp.com -->
    <title>3865D2E8-F539-4A55-ADB8-92532C50F29A</title>
    <desc>Created with sketchtool.</desc>
    <g id="MVP" stroke="none" stroke-width="1" fill="none" fill-rule="evenodd">
        <g id="Mobile---Notifications" transform="translate(-40.000000, -291.000000)" fill="#364344" fill-rule="nonzero">
            <g id="contact-type" transform="translate(16.000000, 268.000000)">
                <g id="Dashboard/Navigation/Sidebar/Section/Purchases" transform="translate(0.000000, 8.000000)">
                    <g id="Dashboard/Navigation/Sidebar/Section/Purchases/Empty">
                        <g id="Email" transform="translate(16.000000, 4.000000)">
                            <path d="M29.7499481,11.0000429 C30.9921327,11.0000429 31.9999428,12.007853 31.9999428,13.2500376 L31.9999428,26.7500054 C31.9999428,27.9921899 30.9921327,29 29.7499481,29 L10.2499946,29 C9.0078101,29 8,27.9921899 8,26.7500054 L8,13.2500376 C8,12.007853 9.0078101,11.0000429 10.2499946,11.0000429 L29.7499481,11.0000429 Z M10.2499946,12.5000393 C9.83750477,12.5000393 9.49999642,12.8375477 9.49999642,13.2500376 L9.49999642,15.1906762 C10.5265748,16.0578617 11.9937496,17.2531713 16.5593363,20.876591 C17.346871,21.5046871 18.9124648,23.0187826 19.9999714,23.0000143 C21.087478,23.0187826 22.6484026,21.5046871 23.4406065,20.876591 C28.0061931,17.2531713 29.473368,16.0578617 30.4999464,15.1906762 L30.4999464,13.2500376 C30.4999464,12.8375477 30.162438,12.5000393 29.7499481,12.5000393 L10.2499946,12.5000393 Z M29.7499481,27.5000036 C30.162438,27.5000036 30.4999464,27.1624952 30.4999464,26.7500054 L30.4999464,17.1406533 C29.4312081,18.0172228 27.7437121,19.3718796 24.3733893,22.0484632 C23.3890167,22.8359522 21.7062356,24.514064 19.9999714,24.5000107 C18.2843688,24.5093949 16.5874887,22.8171839 15.6265535,22.0484632 C12.2562307,19.3718796 10.5687347,18.0172228 9.49999642,17.1406533 L9.49999642,26.7500054 C9.49999642,27.1624952 9.83750477,27.5000036 10.2499946,27.5000036 L29.7499481,27.5000036 Z" id=""></path>
                        </g>
                    </g>
                </g>
            </g>
        </g>
    </g>
</svg>