<?xml version="1.0" encoding="UTF-8"?>
<svg width="16px" height="16px" viewBox="0 0 16 16" version="1.1" xmlns="http://www.w3.org/2000/svg" xmlns:xlink="http://www.w3.org/1999/xlink">
    <g id="Asset-Artboard-Page" stroke="none" stroke-width="1" fill="none" fill-rule="evenodd">
        <g id="⚛-atoms/icons/16/help/blue" fill="#0B7BFB">
            <path d="M15,8 C15,9.26075283 14.6848117,10.4274194 14.0544355,11.5 C13.4240593,12.5725806 12.5725806,13.4240593 11.5,14.0544355 C10.4274194,14.6848117 9.26075283,15 8,15 C6.73924717,15 5.57258065,14.6848117 4.5,14.0544355 C3.42741935,13.4240593 2.57594072,12.5725806 1.94556452,11.5 C1.31518832,10.4274194 1,9.26075283 1,8 C1,6.73924717 1.31518832,5.57258065 1.94556452,4.5 C2.57594072,3.42741935 3.42741935,2.57594072 4.5,1.94556452 C5.57258065,1.31518832 6.73924717,1 8,1 C9.26075283,1 10.4274194,1.31518832 11.5,1.94556452 C12.5725806,2.57594072 13.4240593,3.42741935 14.0544355,4.5 C14.6848117,5.57258065 15,6.73924717 15,8 Z M8.19758065,3.31451613 C7.44489233,3.31451613 6.79569878,3.47446251 6.25,3.79435484 C5.74193548,4.0766129 5.29032258,4.51881735 4.89516129,5.12096774 C4.83870968,5.1962367 4.81989233,5.27620968 4.83870968,5.3608871 C4.85752703,5.44556452 4.90456975,5.51612903 4.97983871,5.57258065 L5.96774194,6.30645161 C6.02419355,6.36290323 6.09946251,6.38642459 6.19354839,6.37701613 C6.28763427,6.36760767 6.36290323,6.32526896 6.41935484,6.25 C6.72043025,5.89247297 6.95564516,5.64784961 7.125,5.51612903 C7.38844072,5.32795685 7.68951613,5.23387097 8.02822581,5.23387097 C8.34811814,5.23387097 8.6444891,5.32325283 8.91733871,5.50201613 C9.19018832,5.68077943 9.3266129,5.90188186 9.3266129,6.16532258 C9.3266129,6.37231168 9.24193548,6.55107541 9.07258065,6.7016129 C8.95967742,6.79569878 8.74327943,6.93682781 8.4233871,7.125 L8.36693548,7.15322581 C7.89650523,7.41666652 7.56720444,7.65188186 7.37903226,7.85887097 C7.04032258,8.21639799 6.87096774,8.63978509 6.87096774,9.12903226 L6.87096774,9.24193548 C6.87096774,9.33602136 6.90389799,9.41599477 6.96975806,9.48185484 C7.03561814,9.54771491 7.11559154,9.58064516 7.20967742,9.58064516 L8.79032258,9.58064516 C8.88440846,9.58064516 8.96438186,9.54771491 9.03024194,9.48185484 C9.09610201,9.41599477 9.12903226,9.33602136 9.12903226,9.24193548 L9.12903226,9.21370968 C9.12903226,9.06317219 9.20430122,8.93145161 9.35483871,8.81854839 C9.44892459,8.74327943 9.62768832,8.6303762 9.89112903,8.47983871 C10.3803762,8.1787633 10.7284948,7.91532258 10.9354839,7.68951613 C11.2930109,7.29435484 11.4717742,6.79569878 11.4717742,6.19354839 C11.4717742,5.66666652 11.3118278,5.1821238 10.9919355,4.73991935 C10.6720432,4.29771491 10.2580645,3.94959677 9.75,3.69556452 C9.24193548,3.44153226 8.72446251,3.31451613 8.19758065,3.31451613 Z M8,10.3145161 C7.64247297,10.3145161 7.33669355,10.4415323 7.08266129,10.6955645 C6.82862903,10.9495968 6.7016129,11.2553762 6.7016129,11.6129032 C6.7016129,11.9704303 6.82862903,12.2762097 7.08266129,12.5302419 C7.33669355,12.7842742 7.64247297,12.9112903 8,12.9112903 C8.35752703,12.9112903 8.66330645,12.7842742 8.91733871,12.5302419 C9.17137097,12.2762097 9.2983871,11.9704303 9.2983871,11.6129032 C9.2983871,11.2553762 9.17137097,10.9495968 8.91733871,10.6955645 C8.66330645,10.4415323 8.35752703,10.3145161 8,10.3145161 Z" id="help-icn-blue"></path>
        </g>
    </g>
</svg>