<svg width="80" height="32" viewBox="0 0 80 32" fill="none" xmlns="http://www.w3.org/2000/svg">
<path d="M20.4476 20.1133C21.0589 22.7005 25.9865 22.1691 27.6316 21.3501H27.6393C27.85 21.2537 28.0997 21.3412 28.2044 21.5484L29.4383 24.0166C29.5442 24.2267 29.4619 24.4829 29.2536 24.5912C29.1276 24.6569 26.9156 25.9398 23.2472 25.9398C17.3734 25.9398 15.504 21.4412 15.4862 18.1818C15.4649 14.2933 18.0284 10.4214 23.391 10.4214C29.4554 10.4214 30.0271 14.5478 30.0271 15.526C30.0271 20.5654 23.6964 20.111 21.4636 20.111L20.4476 20.1133ZM20.2174 17.1125C21.5057 17.1125 22.5057 17.0645 23.2176 16.9687C25.0539 16.7219 25.5539 16.3467 25.5539 15.5023C25.5539 14.4839 24.5538 14.0016 23.3602 14.0016C22.3531 14.0016 20.3493 14.5655 20.2174 17.1125Z" fill="#005465"/>
<path d="M49.1249 27.7849C49.255 27.4541 49.5906 27.4281 49.7586 27.5044C49.7586 27.5044 52.018 28.2252 53.8371 28.2252C58.641 28.2252 58.1067 23.9798 58.1067 23.9798C57.896 24.1787 56.3349 25.5711 53.8939 25.5711C49.848 25.5711 46.769 23.252 46.769 18.3894C46.769 13.5269 50.3966 10.4189 54.8745 10.4189C62.9887 10.4189 62.7503 17.6136 62.7509 18.9919V23.2904C62.7509 24.7906 62.5396 26.0842 62.1171 27.1712C60.6104 31.0455 57.2557 31.9557 54.3271 31.9219C52.408 31.8994 50.0267 31.5752 48.4568 30.8331C48.2242 30.7224 48.1088 30.4573 48.1999 30.2159L49.1243 27.7849H49.1249ZM51.5298 18.2374C51.5298 20.192 52.6068 21.6211 54.8206 21.6211C56.419 21.6211 58.1096 20.5523 58.1096 18.2374C58.1096 15.9224 56.4296 14.7631 54.8206 14.7631C53.0755 14.7631 51.518 16.2709 51.5298 18.235V18.2379V18.2374Z" fill="#005465"/>
<path d="M41.7594 10.812C41.4085 10.812 41.1239 11.0967 41.1239 11.4476V18.5606C41.1239 19.5997 40.8866 21.62 38.3846 21.62C35.8826 21.62 35.7015 19.9465 35.7015 19.0239V11.4476C35.7015 11.0967 35.4175 10.812 35.0665 10.812H31.6917C31.3402 10.812 31.0562 11.0967 31.0562 11.4476V19.9779C31.0562 24.1906 34.2984 25.5931 37.3188 25.5825C38.8379 25.5766 40.5226 25.012 41.2428 24.1398C41.2428 25.6014 40.9161 26.6494 40.2617 27.285C38.3491 29.1414 33.541 27.7383 33.2652 27.6448H33.2563C32.8924 27.5235 32.6486 27.798 32.5888 27.9791L31.8201 30.3071C31.713 30.6296 31.8828 30.9776 32.203 31.0918H32.2125C34.5079 31.8546 38.3864 32.3067 41.0162 31.4753C43.5477 30.6752 44.6946 28.9615 45.1999 27.5519C45.5704 26.5169 45.7775 25.2771 45.7775 23.8161V11.4488C45.7775 11.0978 45.4929 10.8132 45.1419 10.8132H41.7606L41.7594 10.812Z" fill="#005465"/>
<path d="M25.1332 0.388628C25.0001 0.0661158 24.6255 -0.0889268 24.3065 0.0525052C16.2692 3.62144 10.261 10.9505 8.52472 19.7944C8.52472 19.7849 8.51407 19.7849 8.50519 19.7944C8.39276 19.5376 6.61805 15.3319 5.10373 11.2114C5.02502 10.996 4.81909 10.8522 4.58948 10.8522H0.538255C0.11751 10.8499 -0.0706716 11.2736 0.0240109 11.5925C1.25192 15.755 5.66945 24.1237 6.16831 25.0191C6.36182 25.3665 6.72812 25.5813 7.1252 25.5807H11.6232C12.0155 25.5807 12.3381 25.27 12.3511 24.8783C12.6245 15.7355 18.2054 7.89931 26.1132 4.35819C26.4239 4.21853 26.5718 3.86288 26.4416 3.54866L25.1338 0.388628H25.1332Z" fill="#005465"/>
<path d="M71.8751 21.8082C70.0116 21.8082 68.5008 20.1814 68.5008 18.1754C68.5008 16.1693 70.0116 14.5431 71.8751 14.5431C73.7386 14.5431 75.2493 16.1699 75.2493 18.1754C75.2493 20.1808 73.7386 21.8082 71.8751 21.8082ZM71.8775 10.4197C67.3913 10.4197 63.7549 13.8922 63.7549 18.1754C63.7549 22.4586 67.3913 25.9316 71.8775 25.9316C76.3636 25.9316 80 22.4591 80 18.1754C80 13.8916 76.3636 10.4197 71.8775 10.4197Z" fill="#005465"/>
</svg>