<?xml version="1.0" encoding="UTF-8"?>
<svg width="40px" height="40px" viewBox="0 0 40 40" version="1.1" xmlns="http://www.w3.org/2000/svg" xmlns:xlink="http://www.w3.org/1999/xlink">
    <!-- Generator: Sketch 61.2 (89653) - https://sketch.com -->
    <title>Notification Icon@1.5x</title>
    <desc>Created with Sketch.</desc>
    <g id="Page-1" stroke="none" stroke-width="1" fill="none" fill-rule="evenodd">
        <g id="Notification-Icon" fill-rule="nonzero">
            <path d="M31.9999392,16.6662739 C32.8928967,17.1861091 33.4999356,18.1423751 33.4994781,19.2500232 C33.4994781,20.3576714 32.8924389,21.3139374 31.9994814,21.8337726 L31.9994814,29 C31.9994814,29.4321737 31.6676036,30.4999964 30.499485,30.4999964 C30.209172,30.4997218 29.7895868,30.3523222 29.5629028,30.1709567 L25.577164,26.9820452 C23.5755971,25.3817072 21.0621601,24.5000107 18.4999714,24.5000107 L17.1837209,24.5000107 C17.0529381,24.9786015 16.9769953,25.4792107 16.9769953,26.0000072 C16.9769953,27.3631326 17.4340254,28.6212472 18.2027919,29.6300186 C18.9429482,30.6012535 18.2097957,31.9999928 16.988714,31.9999928 L12.0068838,31.9999928 C11.4499699,31.9999928 10.9188737,31.7013943 10.6756187,31.2003274 C9.91156718,29.6257614 9.47747093,27.8641995 9.47747093,26.0000072 L9.5,24.5000107 C7.84298386,24.5000107 6.5,23.1570269 6.5,21.5000179 L6.5,17.0000286 C6.5,15.3430196 7.84298386,14.0000358 9.5,14.0000358 L18.4999714,14.0000358 C21.0621601,14.0000358 23.5755971,13.1183393 25.5776218,11.5180013 L29.5633605,8.32908981 C29.834768,8.11160681 30.1661881,8.00005007 30.4999428,8.00005007 L30.5004005,8.00005007 C31.6727305,8.00005007 31.9999392,9.09034898 31.9999392,9.50005007 L31.9999392,16.6662739 Z M16.988714,30.4999964 C16.0071795,29.2240748 15.4774566,27.6542238 15.4774566,26.0000107 C15.4774566,25.5045249 15.547769,25.0015812 15.6560756,24.5000107 L10.9999893,24.5000107 L10.9995315,24.5225326 L10.9770096,26.0225291 C10.9774674,27.5834537 11.3299903,29.0661009 12.0251486,30.4985774 L16.988714,30.4999964 Z M9.49999642,23.0000143 L18.4999714,23.0000143 L18.4999714,15.5000322 L9.49999642,15.5000322 C8.6731363,15.5000322 7.99999642,16.1731721 7.99999642,17.0000322 L7.99999642,21.5000179 C7.99999642,22.3268744 8.6731363,23.0000143 9.49999642,23.0000143 Z M30.5022774,28.9498292 L30.4999428,9.50050425 C30.499485,9.50613473 30.4985237,9.50846932 30.4966469,9.50846932 C30.4957314,9.50846932 30.4943123,9.5075538 30.4928932,9.50613473 L26.5146618,12.688958 C24.640124,14.1875353 22.3690265,15.1184871 19.9999678,15.4001942 L19.9999678,23.0998523 C22.3690265,23.3815594 24.640124,24.3125112 26.5141582,25.8106308 L30.4905586,28.9920349 C30.4961891,28.9770203 30.5004005,28.9615479 30.5022774,28.9498292 Z" stroke="#36CECE" stroke-width="0.5"></path>
            <path d="M31.9999392,16.6662739 C32.8928967,17.1861091 33.4999356,18.1423751 33.4994781,19.2500232 C33.4994781,20.3576714 32.8924389,21.3139374 31.9994814,21.8337726 L31.9994814,29 C31.9994814,29.4321737 31.6676036,30.4999964 30.499485,30.4999964 C30.209172,30.4997218 29.7895868,30.3523222 29.5629028,30.1709567 L25.577164,26.9820452 C23.5755971,25.3817072 21.0621601,24.5000107 18.4999714,24.5000107 L17.1837209,24.5000107 C17.0529381,24.9786015 16.9769953,25.4792107 16.9769953,26.0000072 C16.9769953,27.3631326 17.4340254,28.6212472 18.2027919,29.6300186 C18.9429482,30.6012535 18.2097957,31.9999928 16.988714,31.9999928 L12.0068838,31.9999928 C11.4499699,31.9999928 10.9188737,31.7013943 10.6756187,31.2003274 C9.91156718,29.6257614 9.47747093,27.8641995 9.47747093,26.0000072 L9.5,24.5000107 C7.84298386,24.5000107 6.5,23.1570269 6.5,21.5000179 L6.5,17.0000286 C6.5,15.3430196 7.84298386,14.0000358 9.5,14.0000358 L18.4999714,14.0000358 C21.0621601,14.0000358 23.5755971,13.1183393 25.5776218,11.5180013 L29.5633605,8.32908981 C29.834768,8.11160681 30.1661881,8.00005007 30.4999428,8.00005007 L30.5004005,8.00005007 C31.6727305,8.00005007 31.9999392,9.09034898 31.9999392,9.50005007 L31.9999392,16.6662739 Z M16.988714,30.4999964 C16.0071795,29.2240748 15.4774566,27.6542238 15.4774566,26.0000107 C15.4774566,25.5045249 15.547769,25.0015812 15.6560756,24.5000107 L10.9999893,24.5000107 L10.9995315,24.5225326 L10.9770096,26.0225291 C10.9774674,27.5834537 11.3299903,29.0661009 12.0251486,30.4985774 L16.988714,30.4999964 Z M9.49999642,23.0000143 L18.4999714,23.0000143 L18.4999714,15.5000322 L9.49999642,15.5000322 C8.6731363,15.5000322 7.99999642,16.1731721 7.99999642,17.0000322 L7.99999642,21.5000179 C7.99999642,22.3268744 8.6731363,23.0000143 9.49999642,23.0000143 Z M30.5022774,28.9498292 L30.4999428,9.50050425 C30.499485,9.50613473 30.4985237,9.50846932 30.4966469,9.50846932 C30.4957314,9.50846932 30.4943123,9.5075538 30.4928932,9.50613473 L26.5146618,12.688958 C24.640124,14.1875353 22.3690265,15.1184871 19.9999678,15.4001942 L19.9999678,23.0998523 C22.3690265,23.3815594 24.640124,24.3125112 26.5141582,25.8106308 L30.4905586,28.9920349 C30.4961891,28.9770203 30.5004005,28.9615479 30.5022774,28.9498292 Z" fill="#36CECE"></path>
        </g>
    </g>
</svg>