<?xml version="1.0" encoding="UTF-8"?>
<svg width="40px" height="40px" viewBox="0 0 40 40" version="1.1" xmlns="http://www.w3.org/2000/svg" xmlns:xlink="http://www.w3.org/1999/xlink">
    <!-- Generator: Sketch 57.1 (83088) - https://sketch.com -->
    <desc>Created with Sketch.</desc>
    <g id="profile" stroke="none" stroke-width="1" fill="none" fill-rule="evenodd">
        <g id="Dashboard/Navigation/Sidebar/Icons/Profile/Empty" fill="#364344" fill-rule="nonzero">
            <path d="M24.1999466,21.5000179 C27.6780725,21.5000179 30.4999499,24.3218953 30.4999499,27.8000212 L30.4999499,29.7499982 C30.4999499,30.9921828 29.4921398,31.9999928 28.2499553,31.9999928 L11.7499946,31.9999928 C10.5078101,31.9999928 9.5,30.9921828 9.5,29.7499982 L9.5,27.8000212 C9.5,24.3218953 12.3218774,21.5000179 15.8000033,21.5000179 C17.1499909,21.5000179 17.792186,22.2500161 19.999975,22.2500161 C22.2077639,22.2500161 22.854674,21.5000179 24.1999466,21.5000179 Z M28.9999535,29.7499982 L28.9999535,27.8000212 C28.9999535,25.15159 26.8483778,23.0000143 24.1999466,23.0000143 C23.2812171,23.0000143 22.3624876,23.7500125 19.999975,23.7500125 C17.6327931,23.7500125 16.7187328,23.0000143 15.8000033,23.0000143 C13.1515721,23.0000143 10.9999964,25.15159 10.9999964,27.8000212 L10.9999964,29.7499982 C10.9999964,30.1624881 11.3375048,30.4999964 11.7499946,30.4999964 L28.2499553,30.4999964 C28.6624452,30.4999964 28.9999535,30.1624881 28.9999535,29.7499982 Z M19.999975,20.0000215 C16.6859112,20.0000215 13.9999893,17.3140995 13.9999893,14.0000358 C13.9999893,10.685972 16.6859112,8.00005007 19.999975,8.00005007 C23.3140387,8.00005007 25.9999607,10.685972 25.9999607,14.0000358 C25.9999607,17.3140995 23.3140387,20.0000215 19.999975,20.0000215 Z M19.999975,9.50004649 C17.5202751,9.50004649 15.4999857,11.5203359 15.4999857,14.0000358 C15.4999857,16.4797357 17.5202751,18.500025 19.999975,18.500025 C22.4796749,18.500025 24.4999642,16.4797357 24.4999642,14.0000358 C24.4999642,11.5203359 22.4796749,9.50004649 19.999975,9.50004649 Z" id=""></path>
        </g>
    </g>
</svg>
