<?xml version="1.0" encoding="UTF-8"?>
<svg width="40px" height="40px" viewBox="0 0 40 40" version="1.1" xmlns="http://www.w3.org/2000/svg" xmlns:xlink="http://www.w3.org/1999/xlink">
    <!-- Generator: Sketch 55.2 (78181) - https://sketchapp.com -->
    <desc>Created with Sketch.</desc>
    <g id="Dashboard/Navigation/Sidebar/Icons/Purchases/Empty" stroke="none" stroke-width="1" fill="none" fill-rule="evenodd">
        <g id="Dashboard/Navigation/Sidebar/Icon/Purchases/Empty" fill="#364344" fill-rule="nonzero">
            <path d="M25.1249616,19.2500232 C25.3312294,19.2500232 25.4999607,19.4187545 25.4999607,19.6250224 L25.4999607,20.3750206 C25.4999607,20.5812884 25.3312294,20.7500232 25.1249616,20.7500232 L13.8749884,20.7500232 C13.6687206,20.7500232 13.4999893,20.5812884 13.4999893,20.3750206 L13.4999893,19.6250224 C13.4999893,19.4187545 13.6687206,19.2500232 13.8749884,19.2500232 L25.1249616,19.2500232 Z M25.1249616,23.7500125 C25.3312294,23.7500125 25.4999607,23.9187438 25.4999607,24.1250116 L25.4999607,24.8750098 C25.4999607,25.0812777 25.3312294,25.2500125 25.1249616,25.2500125 L13.8749884,25.2500125 C13.6687206,25.2500125 13.4999893,25.0812777 13.4999893,24.8750098 L13.4999893,24.1250116 C13.4999893,23.9187438 13.6687206,23.7500125 13.8749884,23.7500125 L25.1249616,23.7500125 Z M28.5983725,8.00005007 C29.3296482,8.00005007 29.9999499,8.58598617 29.995305,9.40162754 L29.995305,30.6031303 C29.995305,31.4281101 29.3249332,31.9999928 28.5983725,31.9999928 C28.3218381,31.9999928 28.0405888,31.9156272 27.7874461,31.7327968 L25.7483884,30.265622 L23.939036,31.5687347 C23.5452687,31.854699 23.0859039,31.9953237 22.6265392,31.9953237 C22.1671744,31.9953237 21.7030947,31.849984 21.3093273,31.5687347 L19.499975,30.265622 L17.6906226,31.5687347 C17.2968552,31.854699 16.8374905,31.9953237 16.3781257,31.9953237 C15.914046,31.9953237 15.4546813,31.849984 15.0609139,31.5687347 L13.2515615,30.265622 L11.2125039,31.7327968 C10.954692,31.9156272 10.6734427,31.9999928 10.4015775,31.9999928 C9.67030175,31.9999928 9,31.4140567 9,30.6031303 L9,9.40162754 C9,8.57660204 9.6750167,8.00471925 10.4015775,8.00005007 C10.6781118,8.00005007 10.9593612,8.08441571 11.2125039,8.26724609 L13.2515615,9.73442093 L15.0609139,8.43130819 C15.4546813,8.14534391 15.914046,8.00471925 16.3734108,8.00471925 C16.8327755,8.00471925 17.2968552,8.15005887 17.6906226,8.43130819 L19.499975,9.73442093 L21.3093273,8.43130819 C21.7030947,8.14534391 22.1624595,8.00471925 22.6218242,8.00471925 C23.0859039,8.00471925 23.5452687,8.15005887 23.939036,8.43130819 L25.7483884,9.73442093 L27.7874461,8.26724609 C28.0452579,8.08441571 28.3265073,8.00005007 28.5983725,8.00005007 Z M28.4999535,30.3968625 L28.4999535,9.6031804 L26.624958,10.953168 L25.7531034,11.585979 L24.8765338,10.953168 L23.0671357,9.65472447 C22.9358951,9.56097469 22.7858863,9.50943062 22.6265392,9.50943062 C22.4671462,9.50943062 22.3171374,9.55630551 22.1858969,9.65005529 L20.3765445,10.953168 L19.499975,11.585979 L18.6234054,10.953168 L16.814053,9.65472447 C16.6828125,9.56097469 16.5328037,9.50943062 16.3734108,9.50943062 C16.2187328,9.50943062 16.068724,9.55630551 15.9374835,9.65005529 L14.1281311,10.953168 L13.2515615,11.585979 L12.374992,10.953168 L10.4999964,9.6031804 L10.4999964,30.4250149 L12.374992,29.0468749 L13.2468466,28.4140639 L14.1234161,29.0468749 L15.9328143,30.3453184 C16.0640548,30.4390682 16.2140636,30.4906123 16.3734108,30.4906123 C16.5328037,30.4906123 16.6828125,30.4437374 16.814053,30.3499876 L18.6234054,29.0468749 L19.499975,28.4140639 L20.3765445,29.0468749 L22.1858969,30.3453184 C22.3171374,30.4390682 22.4671462,30.4906123 22.6265392,30.4906123 C22.7812171,30.4906123 22.9312259,30.4437374 23.0624665,30.3499876 L24.8718188,29.0468749 L25.7483884,28.4140639 L26.624958,29.0468749 L28.4999535,30.3968625 Z M25.1249616,14.750034 C25.3312294,14.750034 25.4999607,14.9187653 25.4999607,15.1250331 L25.4999607,15.8750313 C25.4999607,16.0812991 25.3312294,16.250034 25.1249616,16.250034 L13.8749884,16.250034 C13.6687206,16.250034 13.4999893,16.0812991 13.4999893,15.8750313 L13.4999893,15.1250331 C13.4999893,14.9187653 13.6687206,14.750034 13.8749884,14.750034 L25.1249616,14.750034 Z" id=""></path>
        </g>
    </g>
</svg>
