<?xml version="1.0" encoding="UTF-8"?>
<svg id="Layer_1" data-name="Layer 1" xmlns="http://www.w3.org/2000/svg" viewBox="0 0 40 40">
  <defs>
    <style>
      .cls-1 {
        fill: #364344;
        stroke: #364344;
        stroke-miterlimit: 10;
        stroke-width: .5px;
      }
    </style>
  </defs>
  <path class="cls-1" d="M21.26,34.79c-4.66,0-8.46-3.79-8.46-8.46s3.79-8.46,8.46-8.46,8.46,3.79,8.46,8.46-3.79,8.46-8.46,8.46ZM21.26,19.1c-3.99,0-7.23,3.24-7.23,7.23s3.24,7.23,7.23,7.23,7.23-3.24,7.23-7.23-3.24-7.23-7.23-7.23Z"/>
  <path class="cls-1" d="M11.67,22.13c-4.66,0-8.46-3.79-8.46-8.46S7,5.21,11.67,5.21s8.46,3.79,8.46,8.46-3.79,8.46-8.46,8.46ZM11.67,6.44c-3.99,0-7.23,3.24-7.23,7.23s3.24,7.23,7.23,7.23,7.23-3.24,7.23-7.23-3.24-7.23-7.23-7.23Z"/>
  <path class="cls-1" d="M29.07,27.62c-.32,0-.6-.26-.61-.58-.02-.34.25-.62.58-.64,3.66-.17,6.52-3.18,6.52-6.84s-2.78-6.56-6.33-6.82c-.32-.02-.57-.29-.57-.61v-1.04l-4.68,3.06,4.68,3.27v-.96c0-.18.08-.35.22-.47.14-.12.32-.16.5-.13,1.79.33,3.09,1.89,3.09,3.7,0,2.08-1.69,3.77-3.77,3.77-.34,0-.61-.27-.61-.61s.27-.61.61-.61c1.4,0,2.54-1.14,2.54-2.54,0-.97-.54-1.82-1.36-2.25v1.29c0,.23-.13.44-.33.54-.2.1-.45.09-.63-.04l-6.39-4.46c-.17-.12-.27-.31-.26-.51,0-.2.11-.39.28-.5l6.39-4.18c.19-.12.43-.13.63-.03.2.11.32.31.32.54v1.62c3.91.58,6.89,3.98,6.89,7.98,0,4.32-3.38,7.86-7.69,8.06,0,0-.02,0-.03,0Z"/>
  <g>
    <g>
      <path class="cls-1" d="M24.24,24.89h-.92c-.34,0-.61-.27-.61-.61s.27-.61.61-.61h.92c.34,0,.61.27.61.61s-.27.61-.61.61Z"/>
      <path class="cls-1" d="M19.2,24.89h-.92c-.34,0-.61-.27-.61-.61s.27-.61.61-.61h.92c.34,0,.61.27.61.61s-.27.61-.61.61Z"/>
    </g>
    <path class="cls-1" d="M21.26,30.36c-1.93,0-3.54-1.38-3.83-3.28-.05-.33.18-.65.51-.7.33-.05.65.18.7.51.2,1.3,1.31,2.24,2.62,2.24s2.43-.97,2.63-2.25c.05-.33.36-.56.7-.51.33.05.56.36.51.7-.29,1.88-1.94,3.29-3.84,3.29Z"/>
  </g>
  <g>
    <g>
      <path class="cls-1" d="M14.65,12.21h-.92c-.34,0-.61-.27-.61-.61s.27-.61.61-.61h.92c.34,0,.61.27.61.61s-.27.61-.61.61Z"/>
      <path class="cls-1" d="M9.6,12.21h-.92c-.34,0-.61-.27-.61-.61s.27-.61.61-.61h.92c.34,0,.61.27.61.61s-.27.61-.61.61Z"/>
    </g>
    <path class="cls-1" d="M11.66,17.68c-1.93,0-3.54-1.38-3.83-3.28-.05-.33.18-.65.51-.7.34-.05.65.18.7.51.2,1.3,1.31,2.24,2.62,2.24s2.43-.97,2.63-2.25c.05-.33.37-.56.7-.51.33.05.56.36.51.7-.29,1.88-1.94,3.29-3.84,3.29Z"/>
  </g>
</svg>