<?xml version="1.0" encoding="UTF-8"?>
<svg width="24px" height="24px" viewBox="0 0 24 24" version="1.1" xmlns="http://www.w3.org/2000/svg" xmlns:xlink="http://www.w3.org/1999/xlink">
    <!-- Generator: sketchtool 55.1 (78136) - https://sketchapp.com -->
    <title>91C91FAB-5CC2-419D-904F-5881C3B51C82</title>
    <desc>Created with sketchtool.</desc>
    <g id="MVP" stroke="none" stroke-width="1" fill="none" fill-rule="evenodd">
        <g id="Mobile---Notifications" transform="translate(-41.000000, -353.000000)" fill="#364344" fill-rule="nonzero">
            <g id="contact-type" transform="translate(16.000000, 268.000000)">
                <g id="Dashboard/Navigation/Sidebar/Section/Purchases" transform="translate(1.000000, 73.000000)">
                    <g id="Dashboard/Navigation/Sidebar/Section/Purchases/Empty">
                        <g id="Telephone" transform="translate(16.000000, 4.000000)">
                            <path d="M30.8655613,9.12971656 C31.5311939,9.27972536 31.9999428,9.87037642 31.9999428,10.5547315 C31.9999428,22.4281315 22.3765374,31.9999928 10.5546814,31.9999928 C9.87032635,31.9999928 9.27967529,31.531244 9.12499732,30.8609422 L8.03749076,26.1406318 C7.8781436,25.4515618 8.23437444,24.7484385 8.8859537,24.4671892 L13.9671641,22.2875068 C14.5624844,22.029695 15.2656077,22.2031412 15.6780975,22.7047117 L17.7453076,25.2312407 C20.9937282,23.6374945 23.6327752,20.9937782 25.2265214,17.7500268 L22.6999466,15.6828626 C22.198422,15.2703269 22.0249757,14.5672036 22.2827876,13.9719291 L24.4624699,8.88600377 C24.7437192,8.23442451 25.4515117,7.87819367 26.1405817,8.03754082 L30.8655613,9.12971656 Z M10.582788,30.4999964 C21.5749493,30.4859431 30.485893,21.5797143 30.4952772,10.5875531 L25.8265108,9.50943062 L23.670266,14.5437662 L27.0827487,17.332822 C24.8140316,22.1703196 22.1843229,24.8093667 17.3281028,27.0875137 L14.5390469,23.675031 L9.5046656,25.8312759 L10.582788,30.4999964 Z" id=""></path>
                        </g>
                    </g>
                </g>
            </g>
        </g>
    </g>
</svg>