<?xml version="1.0" encoding="UTF-8"?>
<svg width="22px" height="22px" viewBox="0 0 22 22" version="1.1" xmlns="http://www.w3.org/2000/svg" xmlns:xlink="http://www.w3.org/1999/xlink">
    <!-- Generator: sketchtool 55.2 (78181) - https://sketchapp.com -->
    <title>9011BDD3-A9B1-4C06-8AC2-0E334E25F4AA</title>
    <desc>Created with sketchtool.</desc>
    <g id="MVP" stroke="none" stroke-width="1" fill="none" fill-rule="evenodd">
        <g id="Overview" transform="translate(-66.000000, -525.000000)" fill="#364344">
            <g id="Dashboard/Navigation/Sidebar/Full" transform="translate(0.000000, 60.000000)">
                <g id="Dashboard/Navigation/Sidebar/Section/Login">
                    <g transform="translate(16.000000, 428.000000)">
                        <g id="login-section">
                            <g transform="translate(0.000000, 17.000000)">
                                <g id="../dashboard/assets/account-icon-black" transform="translate(50.000000, 20.000000)">
                                    <g id="ui-icon/account/user-icn">
                                        <path d="M11,0 C12.981183,0 14.8145161,0.495295925 16.5,1.4858871 C18.1854839,2.47647827 19.5235217,3.81451613 20.5141129,5.5 C21.5047041,7.18548387 22,9.01881698 22,11 C22,12.981183 21.5047041,14.8145161 20.5141129,16.5 C19.5235217,18.1854839 18.1854839,19.5235217 16.5,20.5141129 C14.8145161,21.5047041 12.981183,22 11,22 C9.01881698,22 7.18548387,21.5047041 5.5,20.5141129 C3.81451613,19.5235217 2.47647827,18.1854839 1.4858871,16.5 C0.495295925,14.8145161 0,12.981183 0,11 C0,9.01881698 0.495295925,7.18548387 1.4858871,5.5 C2.47647827,3.81451613 3.81451613,2.47647827 5.5,1.4858871 C7.18548387,0.495295925 9.01881698,0 11,0 Z M11,1.41935484 C9.25537657,1.41935484 7.65120968,1.84811851 6.1875,2.70564516 C4.72379032,3.56317182 3.56317182,4.72379032 2.70564516,6.1875 C1.84811851,7.65120968 1.41935484,9.25537657 1.41935484,11 C1.41935484,12.8037637 1.89247334,14.4744621 2.83870968,16.0120968 C3.07526859,15.4206992 3.45967742,14.9327959 3.99193548,14.5483871 C4.43548387,14.1935484 4.89381698,13.9569895 5.36693548,13.8387097 L6.78629032,13.3951613 C5.81048387,12.3306452 5.32258065,11.0591396 5.32258065,9.58064516 C5.32258065,8.54569915 5.57392496,7.59207012 6.0766129,6.71975806 C6.57930085,5.84744601 7.26680085,5.15994601 8.1391129,4.65725806 C9.01142496,4.15457012 9.96505399,3.90322581 11,3.90322581 C12.034946,3.90322581 12.988575,4.15457012 13.8608871,4.65725806 C14.7331992,5.15994601 15.4206992,5.84744601 15.9233871,6.71975806 C16.426075,7.59207012 16.6774194,8.54569915 16.6774194,9.58064516 C16.6774194,11.0591396 16.1895161,12.3306452 15.2137097,13.3951613 L16.6330645,13.8387097 C17.1357525,13.9569895 17.5940862,14.1935484 18.0080645,14.5483871 C18.5403226,14.9327959 18.9247314,15.4206992 19.1612903,16.0120968 C20.1075267,14.4744621 20.5806452,12.8037637 20.5806452,11 C20.5806452,9.25537657 20.1518815,7.65120968 19.2943548,6.1875 C18.4368282,4.72379032 17.2762097,3.56317182 15.8125,2.70564516 C14.3487903,1.84811851 12.7446234,1.41935484 11,1.41935484 Z M11,13.8387097 C12.1827959,13.8387097 13.1881718,13.4247314 14.016129,12.5967742 C14.8440862,11.768817 15.2580645,10.7634411 15.2580645,9.58064516 C15.2580645,8.39784924 14.8440862,7.39247334 14.016129,6.56451613 C13.1881718,5.73655891 12.1827959,5.32258065 11,5.32258065 C9.81720408,5.32258065 8.81182818,5.73655891 7.98387097,6.56451613 C7.15591375,7.39247334 6.74193548,8.39784924 6.74193548,9.58064516 C6.74193548,10.7634411 7.15591375,11.768817 7.98387097,12.5967742 C8.81182818,13.4247314 9.81720408,13.8387097 11,13.8387097 Z M11,20.5806452 C12.3897847,20.5806452 13.6982525,20.3071234 14.9254032,19.7600806 C16.152554,19.2130379 17.2096774,18.4368282 18.0967742,17.4314516 C18.0672041,16.8991935 17.8823927,16.426075 17.5423387,16.0120968 C17.2022847,15.5981185 16.7809138,15.3172041 16.2782258,15.1693548 L13.8387097,14.5040323 C12.981183,15.0067202 12.034946,15.2580645 11,15.2580645 C9.96505399,15.2580645 9.01881698,15.0067202 8.16129032,14.5040323 L5.72177419,15.1693548 C5.21908625,15.3172041 4.79771528,15.5981185 4.45766129,16.0120968 C4.1176073,16.426075 3.93279592,16.8991935 3.90322581,17.4314516 C4.79032258,18.4368282 5.84744601,19.2130379 7.07459677,19.7600806 C8.30174754,20.3071234 9.61021528,20.5806452 11,20.5806452 Z"></path>
                                    </g>
                                </g>
                            </g>
                        </g>
                    </g>
                </g>
            </g>
        </g>
    </g>
</svg>