<?xml version="1.0" encoding="UTF-8"?>
<svg width="24px" height="24px" viewBox="0 0 24 24" version="1.1" 
  xmlns="http://www.w3.org/2000/svg" 
  xmlns:xlink="http://www.w3.org/1999/xlink">
  <!-- Generator: Sketch 55.2 (78181) - https://sketchapp.com -->
  <title>../dashboard/assets/help-icon-dark</title>
  <desc>Created with Sketch.</desc>
  <g id="../dashboard/assets/help-icon-dark" stroke="none" stroke-width="1" fill="none" fill-rule="evenodd">
    <g id="../dashboard/assets/help-icon" transform="translate(3.000000, 3.000000)" fill="#FFFFFF" fill-rule="nonzero">
      <path d="M9,0 C13.9702148,0 18,4.03123819 18,9 C18,13.9716679 13.9702148,18 9,18 C4.02978516,18 0,13.9716679 0,9 C0,4.03123819 4.02978516,0 9,0 Z M9,16.2580645 C13.0125969,16.2580645 16.2580645,13.0111793 16.2580645,9 C16.2580645,4.98885616 13.0097617,1.74193548 9,1.74193548 C4.9888916,1.74193548 1.74193548,4.99009655 1.74193548,9 C1.74193548,13.0125969 4.98874984,16.2580645 9,16.2580645 Z M12.8919245,6.99676711 C12.8919245,9.43009703 10.2637467,9.46755686 10.2637467,10.3668055 L10.2637467,10.5967742 C10.2637467,10.8372685 10.0687571,11.0322581 9.82826282,11.0322581 L8.17170174,11.0322581 C7.93120747,11.0322581 7.73621787,10.8372685 7.73621787,10.5967742 L7.73621787,10.2825298 C7.73621787,8.98532794 8.71970687,8.46677325 9.46287881,8.05010789 C10.1001922,7.69283959 10.4907738,7.4498291 10.4907738,6.97667276 C10.4907738,6.35080645 9.69242219,5.93538149 9.04699313,5.93538149 C8.20547584,5.93538149 7.8169851,6.33375992 7.27085827,7.02299253 C7.12364148,7.2087678 6.85497259,7.24328613 6.66604319,7.10007403 L5.65632876,6.33439784 C5.47097877,6.19387916 5.4294788,5.93282983 5.56035786,5.74056908 C6.41778761,4.48153588 7.50993495,3.77419355 9.21026414,3.77419355 C10.9910771,3.77419355 12.8919245,5.16424757 12.8919245,6.99676711 Z M10.5241935,13.0645161 C10.5241935,13.9049702 9.8404541,14.5887097 9,14.5887097 C8.1595459,14.5887097 7.47580645,13.9049702 7.47580645,13.0645161 C7.47580645,12.224062 8.1595459,11.5403226 9,11.5403226 C9.8404541,11.5403226 10.5241935,12.224062 10.5241935,13.0645161 Z" id="ui-icon/function/help-icon"></path>
    </g>
  </g>
</svg>
