<?xml version="1.0" encoding="UTF-8"?>
<svg width="29px" height="26px" viewBox="0 0 29 26" version="1.1" xmlns="http://www.w3.org/2000/svg" xmlns:xlink="http://www.w3.org/1999/xlink">
    <!-- Generator: sketchtool 54.1 (76490) - https://sketchapp.com -->
    <title>ECA91B08-0C65-42D3-8192-FAF00A7855E8</title>
    <desc>Created with sketchtool.</desc>
    <g id="Pages" stroke="none" stroke-width="1" fill="none" fill-rule="evenodd">
        <g id="Mobile---Overview" transform="translate(-22.000000, -71.000000)" fill="#36CECE" fill-rule="nonzero" stroke="#36CECE" stroke-width="0.5">
            <g id="Dashboard/Navigation/Sidebar/Section/Insurance/Active" transform="translate(0.000000, 60.000000)">
                <g id="Dashboard/Navigation/Sidebar/Section/Overview">
                    <g id="Dashboard/Navigation/Sidebar/Icons/Overview/Selected" transform="translate(16.000000, 4.000000)">
                        <g id="">
                            <path d="M33.8815124,18.3090422 C33.9466521,18.3643857 33.9995236,18.4786432 33.9995236,18.5641533 C33.9995236,18.6252646 33.9699522,18.7146656 33.9335143,18.7637378 L33.2683852,19.5840483 C33.2153306,19.6493253 33.1040027,19.7022884 33.0199117,19.7022884 C32.9572898,19.7022884 32.867019,19.6702908 32.8183589,19.6309232 L30.9996223,18.1642061 L30.9996223,31.2507228 C30.9996223,31.6647232 30.6636246,32.000721 30.2496241,32.000721 L10.7496706,32.000721 C10.3356701,32.000721 9.99967241,31.6647232 9.99967241,31.2507228 L9.99967241,18.1594912 L8.18702415,19.6215391 C8.13840976,19.661044 8.0480932,19.6930874 7.98542551,19.6930874 C7.90128874,19.6930874 7.79000666,19.6400327 7.73704353,19.5746642 L7.07141096,18.7543536 C7.0319976,18.7063343 7,18.6169333 7,18.5548149 C7,18.4712733 7.05300891,18.3611814 7.11828585,18.3090422 L19.440751,8.3757773 C19.6962741,8.16836508 20.170745,8 20.4998763,8 C20.8290076,8 21.3034785,8.16836508 21.5590015,8.3757773 L29.4996259,14.7788687 L29.4996259,11.3757701 C29.4996259,11.1687699 29.6676248,11.000771 29.874625,11.000771 L30.6246232,11.000771 C30.8316235,11.000771 30.9996223,11.1687699 30.9996223,11.3757701 L30.9996223,15.989193 L33.8815124,18.3090422 Z M22.749642,30.5007246 L22.749642,23.0007424 L18.2496527,23.0007424 L18.2496527,30.5007246 L22.749642,30.5007246 Z M29.4996259,30.5007246 L29.4996259,16.9538819 L20.6923196,9.85325181 C20.6448954,9.81447932 20.5566846,9.78293947 20.495436,9.78293947 C20.4341416,9.78293947 20.3459765,9.81447932 20.2985523,9.85325181 L11.4996688,16.9501282 L11.4996688,30.5007246 L16.7496563,30.5007246 L16.7496563,22.2507442 C16.7496563,21.8367437 17.0856541,21.500746 17.4996545,21.500746 L23.4996402,21.500746 C23.9136407,21.500746 24.2496384,21.8367437 24.2496384,22.2507442 L24.2496384,30.5007246 L29.4996259,30.5007246 Z"></path>
                        </g>
                    </g>
                </g>
            </g>
        </g>
    </g>
</svg>