<?xml version="1.0" encoding="UTF-8"?>
<svg width="40px" height="40px" viewBox="0 0 40 40" version="1.1" xmlns="http://www.w3.org/2000/svg" xmlns:xlink="http://www.w3.org/1999/xlink">
    <!-- Generator: Sketch 55.2 (78181) - https://sketchapp.com -->
    <desc>Created with Sketch.</desc>
    <g id="Dashboard/Navigation/Sidebar/Icons/Purchases/Active" stroke="none" stroke-width="1" fill="none" fill-rule="evenodd">
        <g id="Dashboard/Navigation/Sidebar/Icon/Purchases/Empty" fill="#36CECE" fill-rule="nonzero">
            <path d="M25.1249616,19.2500232 C25.3312294,19.2500232 25.4999607,19.4187545 25.4999607,19.6250224 L25.4999607,20.3750206 C25.4999607,20.5812884 25.3312294,20.7500232 25.1249616,20.7500232 L13.8749884,20.7500232 C13.6687206,20.7500232 13.4999893,20.5812884 13.4999893,20.3750206 L13.4999893,19.6250224 C13.4999893,19.4187545 13.6687206,19.2500232 13.8749884,19.2500232 L25.1249616,19.2500232 Z M25.1249616,23.7500125 C25.3312294,23.7500125 25.4999607,23.9187438 25.4999607,24.1250116 L25.4999607,24.8750098 C25.4999607,25.0812777 25.3312294,25.2500125 25.1249616,25.2500125 L13.8749884,25.2500125 C13.6687206,25.2500125 13.4999893,25.0812777 13.4999893,24.8750098 L13.4999893,24.1250116 C13.4999893,23.9187438 13.6687206,23.7500125 13.8749884,23.7500125 L25.1249616,23.7500125 Z M28.5983725,8.00005007 C29.3296482,8.00005007 29.9999499,8.58598617 29.995305,9.40162754 L29.995305,30.6031303 C29.995305,31.4281101 29.3249332,31.9999928 28.5983725,31.9999928 C28.3218381,31.9999928 28.0405888,31.9156272 27.7874461,31.7327968 L25.7483884,30.265622 L23.939036,31.5687347 C23.5452687,31.854699 23.0859039,31.9953237 22.6265392,31.9953237 C22.1671744,31.9953237 21.7030947,31.849984 21.3093273,31.5687347 L19.499975,30.265622 L17.6906226,31.5687347 C17.2968552,31.854699 16.8374905,31.9953237 16.3781257,31.9953237 C15.914046,31.9953237 15.4546813,31.849984 15.0609139,31.5687347 L13.2515615,30.265622 L11.2125039,31.7327968 C10.954692,31.9156272 10.6734427,31.9999928 10.4015775,31.9999928 C9.67030175,31.9999928 9,31.4140567 9,30.6031303 L9,9.40162754 C9,8.57660204 9.6750167,8.00471925 10.4015775,8.00005007 C10.6781118,8.00005007 10.9593612,8.08441571 11.2125039,8.26724609 L13.2515615,9.73442093 L15.0609139,8.43130819 C15.4546813,8.14534391 15.914046,8.00471925 16.3734108,8.00471925 C16.8327755,8.00471925 17.2968552,8.15005887 17.6906226,8.43130819 L19.499975,9.73442093 L21.3093273,8.43130819 C21.7030947,8.14534391 22.1624595,8.00471925 22.6218242,8.00471925 C23.0859039,8.00471925 23.5452687,8.15005887 23.939036,8.43130819 L25.7483884,9.73442093 L27.7874461,8.26724609 C28.0452579,8.08441571 28.3265073,8.00005007 28.5983725,8.00005007 Z M28.4999535,30.3968625 L28.4999535,9.6031804 L26.624958,10.953168 L25.7531034,11.585979 L24.8765338,10.953168 L23.0671357,9.65472447 C22.9358951,9.56097469 22.7858863,9.50943062 22.6265392,9.50943062 C22.4671462,9.50943062 22.3171374,9.55630551 22.1858969,9.65005529 L20.3765445,10.953168 L19.499975,11.585979 L18.6234054,10.953168 L16.814053,9.65472447 C16.6828125,9.56097469 16.5328037,9.50943062 16.3734108,9.50943062 C16.2187328,9.50943062 16.068724,9.55630551 15.9374835,9.65005529 L14.1281311,10.953168 L13.2515615,11.585979 L12.374992,10.953168 L10.4999964,9.6031804 L10.4999964,30.4250149 L12.374992,29.0468749 L13.2468466,28.4140639 L14.1234161,29.0468749 L15.9328143,30.3453184 C16.0640548,30.4390682 16.2140636,30.4906123 16.3734108,30.4906123 C16.5328037,30.4906123 16.6828125,30.4437374 16.814053,30.3499876 L18.6234054,29.0468749 L19.499975,28.4140639 L20.3765445,29.0468749 L22.1858969,30.3453184 C22.3171374,30.4390682 22.4671462,30.4906123 22.6265392,30.4906123 C22.7812171,30.4906123 22.9312259,30.4437374 23.0624665,30.3499876 L24.8718188,29.0468749 L25.7483884,28.4140639 L26.624958,29.0468749 L28.4999535,30.3968625 Z M25.1249616,14.750034 C25.3312294,14.750034 25.4999607,14.9187653 25.4999607,15.1250331 L25.4999607,15.8750313 C25.4999607,16.0812991 25.3312294,16.250034 25.1249616,16.250034 L13.8749884,16.250034 C13.6687206,16.250034 13.4999893,16.0812991 13.4999893,15.8750313 L13.4999893,15.1250331 C13.4999893,14.9187653 13.6687206,14.750034 13.8749884,14.750034 L25.1249616,14.750034 Z" id=""></path>
            <path d="M25.1249616,19.0000232 C25.4693006,19.0000232 25.7499607,19.2806833 25.7499607,19.6250224 L25.7499607,20.3750206 C25.7499607,20.7193596 25.4693006,21.0000232 25.1249616,21.0000232 L13.8749884,21.0000232 C13.5306494,21.0000232 13.2499893,20.7193596 13.2499893,20.3750206 L13.2499893,19.6250224 C13.2499893,19.2806833 13.5306494,19.0000232 13.8749884,19.0000232 L25.1249616,19.0000232 Z M25.1249616,19.5000215 L13.8749884,19.5000215 C13.8067917,19.5000215 13.7499893,19.5568257 13.7499893,19.6250224 L13.7499893,20.3750206 C13.7499893,20.4432172 13.8067917,20.5000215 13.8749884,20.5000215 L25.1249616,20.5000215 C25.1931582,20.5000215 25.2499607,20.4432172 25.2499607,20.3750206 L25.2499607,19.6250224 C25.2499607,19.5568257 25.1931582,19.5000215 25.1249616,19.5000215 Z M25.1249616,23.5000125 C25.4693006,23.5000125 25.7499607,23.7806726 25.7499607,24.1250116 L25.7499607,24.8750098 C25.7499607,25.2193488 25.4693006,25.5000125 25.1249616,25.5000125 L13.8749884,25.5000125 C13.5306494,25.5000125 13.2499893,25.2193488 13.2499893,24.8750098 L13.2499893,24.1250116 C13.2499893,23.7806726 13.5306494,23.5000125 13.8749884,23.5000125 L25.1249616,23.5000125 Z M25.1249616,24.0000107 L13.8749884,24.0000107 C13.8067917,24.0000107 13.7499893,24.056815 13.7499893,24.1250116 L13.7499893,24.8750098 C13.7499893,24.9432065 13.8067917,25.0000107 13.8749884,25.0000107 L25.1249616,25.0000107 C25.1931582,25.0000107 25.2499607,24.9432065 25.2499607,24.8750098 L25.2499607,24.1250116 C25.2499607,24.056815 25.1931582,24.0000107 25.1249616,24.0000107 Z M27.6428292,8.0633197 C27.9347351,7.85631115 28.2648501,7.75005007 28.5983725,7.75005007 C29.4962521,7.75005007 30.2505876,8.47530391 30.2453086,9.40162754 L30.2453086,30.6031303 C30.2453086,31.5357248 29.4952727,32.2499928 28.5983725,32.2499928 C28.2598224,32.2499928 27.9292115,32.1435721 27.6414319,31.9357251 L25.7484566,30.5736617 L24.0859405,31.7710194 C23.6570798,32.0824693 23.1483556,32.2453237 22.6265392,32.2453237 C22.109314,32.2453237 21.5954883,32.080347 21.1632232,31.7715982 L19.4999748,30.5737109 L17.8375271,31.7710194 C17.4086664,32.0824693 16.8999421,32.2453237 16.3781257,32.2453237 C15.857876,32.2453237 15.3484406,32.0813225 14.9148097,31.7715982 L13.2514928,30.5736615 L11.3571207,31.9367232 C11.0652148,32.1437318 10.7350998,32.2499928 10.4015775,32.2499928 C9.50560781,32.2499928 8.75,31.5268724 8.75,30.6031303 L8.75,9.40162754 C8.75,8.47066059 9.50219351,7.75582472 10.4015775,7.75005007 C10.7401276,7.75005007 11.0707385,7.85647078 11.358518,8.06431784 L13.2514933,9.42638122 L14.9140094,8.22902355 C15.3428701,7.91757357 15.8515944,7.75471925 16.3734108,7.75471925 C16.890636,7.75471925 17.4044616,7.91969593 17.8367268,8.22844476 L19.4999751,9.42633199 L21.1624229,8.22902355 C21.5912836,7.91757357 22.1000078,7.75471925 22.6218242,7.75471925 C23.1420739,7.75471925 23.6515093,7.91872044 24.0851402,8.22844476 L25.7484571,9.42638138 L27.6428292,8.0633197 Z M28.5983725,8.25004491 C28.3690088,8.25004491 28.139859,8.32381135 27.9334602,8.47017434 L25.7483201,10.0424607 L25.6022842,9.93728437 L23.793731,8.63474476 C23.4455085,8.38602599 23.0376315,8.25471925 22.6218242,8.25471925 C22.2048296,8.25471925 21.799076,8.38461029 21.4554315,8.63417163 L19.499975,10.04251 L19.3538708,9.93728437 L17.5453175,8.63474476 C17.19857,8.38707948 16.7863294,8.25471925 16.3734108,8.25471925 C15.9564162,8.25471925 15.5506626,8.38461029 15.2070181,8.63417163 L13.2516299,10.0424607 L13.1055474,9.93734918 L11.0661286,8.46991396 C10.8633854,8.32348427 10.6352517,8.25004491 10.403184,8.25004491 C9.77409414,8.2540877 9.25,8.75215274 9.25,9.40162754 L9.25,30.6031303 C9.25,31.2456951 9.77695421,31.7499928 10.4015775,31.7499928 C10.6309411,31.7499928 10.8600909,31.6762316 11.0664898,31.5298686 L13.2516299,29.9575822 L13.3976657,30.0627586 L15.206219,31.3652982 C15.5544414,31.6140169 15.9623184,31.7453237 16.3781257,31.7453237 C16.7951203,31.7453237 17.2008739,31.6154326 17.5445184,31.3658713 L19.499975,29.9575329 L19.6460791,30.0627586 L21.4546324,31.3652982 C21.8013799,31.6129634 22.2136205,31.7453237 22.6265392,31.7453237 C23.0435338,31.7453237 23.4492873,31.6154326 23.7929319,31.3658713 L25.7483201,29.9575822 L25.8944025,30.0626937 L27.9338214,31.530129 C28.1365645,31.6765586 28.3646982,31.7499928 28.5983725,31.7499928 C29.2244431,31.7499928 29.7453042,31.2539746 29.7453042,30.6031303 L29.7453042,9.40019642 C29.748979,8.75487181 29.2239147,8.25004491 28.5983725,8.25004491 Z M26.4788824,10.750284 L28.7499535,9.1151239 L28.7499535,30.884919 L28.353878,30.5997466 L26.4786259,29.249574 L25.7483884,28.7224027 L25.017923,29.2497383 L23.2077827,30.5534162 C23.0355397,30.6764555 22.8350498,30.7406123 22.6265392,30.7406123 C22.4163235,30.7406123 22.2154699,30.6736767 22.0401381,30.5484302 L20.2302125,29.249574 L19.4999749,28.7224027 L18.7695096,29.2497383 L16.9593693,30.5534162 C16.7864677,30.6769259 16.5858464,30.7406123 16.3734108,30.7406123 C16.1632328,30.7406123 15.9623808,30.673672 15.7870579,30.5484319 L13.9770841,29.249574 L13.2472412,28.7226876 L12.5230524,29.248315 L10.2499964,30.9190333 L10.2499964,9.1151239 L10.646072,9.40029635 L12.521324,10.7504689 L13.2515615,11.2776402 L13.9820269,10.7503046 L15.7921672,9.44662672 C15.9644103,9.32358737 16.1649001,9.25943062 16.3734108,9.25943062 C16.5836264,9.25943062 16.78448,9.32636626 16.9598119,9.45161276 L18.7697375,10.7504689 L19.499975,11.2776402 L20.2304404,10.7503046 L22.0405806,9.44662672 C22.2134822,9.32311698 22.4141036,9.25943062 22.6265392,9.25943062 C22.8367172,9.25943062 23.0375691,9.32637089 23.212892,9.45161102 L25.0228659,10.7504689 L25.7527083,11.277355 L26.4788824,10.750284 Z M28.2499535,10.0912364 L26.7718088,11.1554916 L25.7534987,11.8946032 L25.6067713,11.7886781 L24.7307774,11.1562815 L22.9218194,9.85815304 C22.8301564,9.79267491 22.7304081,9.75943062 22.6265392,9.75943062 C22.5178429,9.75943062 22.4189162,9.79083445 22.3320011,9.85291872 L20.5228766,11.1558671 L19.499975,11.8943178 L19.3536429,11.7886781 L18.4776466,11.1562797 L16.6687368,9.85815304 C16.5770704,9.79267246 16.4773216,9.75943062 16.3734108,9.75943062 C16.2690407,9.75943062 16.1701774,9.79106688 16.0835876,9.85291872 L14.2744631,11.1558671 L13.2515615,11.8943178 L13.1052295,11.7886781 L12.2289164,11.1560521 L10.7499964,10.0912369 L10.7499964,29.9309977 L12.2281411,28.8445513 L13.2464513,28.1054397 L13.3931786,28.2113648 L14.2691725,28.8437614 L16.0781305,30.1418899 C16.1697935,30.207368 16.2695418,30.2406123 16.3734108,30.2406123 C16.4821071,30.2406123 16.5810337,30.2092085 16.6679489,30.1471242 L18.4770733,28.8441758 L19.499975,28.1057251 L19.646307,28.2113648 L20.5223034,28.8437632 L22.3312132,30.1418899 C22.4228796,30.2073705 22.5226283,30.2406123 22.6265392,30.2406123 C22.7309092,30.2406123 22.8297725,30.208976 22.9163623,30.1471242 L24.7254868,28.8441758 L25.7483884,28.1057251 L25.8947205,28.2113648 L26.7710335,28.8439908 L28.2499535,29.908806 L28.2499535,10.0912364 Z M25.1249616,14.500034 C25.4693006,14.500034 25.7499607,14.7806941 25.7499607,15.1250331 L25.7499607,15.8750313 C25.7499607,16.2193703 25.4693006,16.500034 25.1249616,16.500034 L13.8749884,16.500034 C13.5306494,16.500034 13.2499893,16.2193703 13.2499893,15.8750313 L13.2499893,15.1250331 C13.2499893,14.7806941 13.5306494,14.500034 13.8749884,14.500034 L25.1249616,14.500034 Z M25.1249616,15.0000322 L13.8749884,15.0000322 C13.8067917,15.0000322 13.7499893,15.0568364 13.7499893,15.1250331 L13.7499893,15.8750313 C13.7499893,15.9432279 13.8067917,16.0000322 13.8749884,16.0000322 L25.1249616,16.0000322 C25.1931582,16.0000322 25.2499607,15.9432279 25.2499607,15.8750313 L25.2499607,15.1250331 C25.2499607,15.0568364 25.1931582,15.0000322 25.1249616,15.0000322 Z" id=""></path>
        </g>
    </g>
</svg>
