<svg xmlns="http://www.w3.org/2000/svg" viewBox="0 0 1465.52 389.67"><defs><style>.cls-1{fill:#fff;}</style></defs><g id="Layer_2" data-name="Layer 2"><g id="Layer_1-2" data-name="Layer 1"><path class="cls-1" d="M561.76,313.45c-27.21,22.7-69.42,15.88-89-2.39-12-11.23-18.19-25.24-20.12-41.27-2.81-23.44,1.95-44.83,18.39-62.53,13.42-14.46,30.56-21.67,50-23.35,25.67-2.23,49,3.22,67.77,22.26a60.8,60.8,0,0,1,17.9,41.76c.72,25.42,1.45,51-.8,76.31-3.16,35.46-27.28,58.93-62.36,64-24.52,3.52-48.47.5-71.75-7.8-6.82-2.44-7.35-3.94-4.76-10.82,2.18-5.75,4.35-11.5,6.55-17.25,2.52-6.57,3.77-7.14,10.43-5,12.78,4.09,25.85,6.88,39.27,5.89,7.18-.54,14.68-1.84,21.22-4.67C557,343.18,563.4,329.1,561.76,313.45Zm.41-54.94c.15-18.91-13-32.85-31.26-33.11s-32.58,14.16-32.56,32.67c0,19.1,12.1,31.22,31.24,31.33S562,276.89,562.17,258.51Z"/><path class="cls-1" d="M400.12,315.23c-23.08,15.9-46.86,16.16-70.93,6-17.49-7.4-27.14-21.93-27.77-40.65-1-29-.37-58-.39-87,0-4,2.29-6.26,6.22-6.3,10.83-.12,21.66-.15,32.49,0,4.87.08,6.57,2.46,6.58,8.57,0,22.17.3,44.33-.07,66.49-.31,18.53,7.47,29.14,31.43,26.24,11.77-1.42,18.67-8.84,20.41-20.61a58.4,58.4,0,0,0,.55-8.47q.06-30.49,0-61c0-10.23,1.06-11.31,11-11.31,8.83,0,17.66,0,26.5,0,5.9,0,7.94,2,7.94,7.66,0,40.33.29,80.66-.19,121a101.43,101.43,0,0,1-4.44,28c-8.25,27.11-28.24,40.56-55.34,44.39-23.26,3.28-46.17.68-68.67-5.78-7.6-2.18-8.73-4.53-6.24-12.05q2.89-8.78,5.87-17.51c1.85-5.44,3.41-6.2,8.91-4.74,15.05,4,30.25,6.73,45.9,4.48C389,349.9,397.26,341.24,399.38,322,399.62,319.88,399.85,317.75,400.12,315.23Z"/><path class="cls-1" d="M242.27,79.71c5.9,14.21,11.61,28,17.39,41.88-6.17,3-12.08,5.64-17.73,8.73q-101.11,55.37-119.49,169.2c-1.24,7.7-1.49,15.57-2.09,23.36-.4,5.21-2.59,7.62-7.78,7.65-14.33.08-28.66,0-43,.05-5.16,0-8.26-2.73-10.54-7-20-37.78-39.52-75.79-54-116.16-1.46-4.07-3.23-8-4.57-12.14-1.57-4.81.63-7.92,5.72-8,12.5-.12,25,.05,37.49-.09,4.46-.06,5.9,2.72,7.26,6.19q14.52,37.16,29.2,74.26c.66,1.68,1.5,3.29,2.77,6.05,9.28-44.27,27.63-83.1,55.74-117.14S201.1,97.08,242.27,79.71Z"/><path class="cls-1" d="M691.62,335.14c-36.77-.67-67.9-23.56-76.66-56.88-11.5-43.72,18.29-88,63.17-93.83,31.62-4.1,58.75,4.63,78.35,30.41,32.8,43.16,8.61,105.48-45.15,117.48C704.87,333.76,698.19,334.22,691.62,335.14Zm32.71-70c0-18.38-4.36-28.06-12.82-34.42a32.56,32.56,0,0,0-45.13,5.59c-11.46,14.48-9.22,39,4.75,50.19,10.6,8.48,22.4,9.92,34.6,4.19C718.9,284.49,724.2,273.21,724.33,265.12Z"/><path class="cls-1" d="M201.66,277.39c3.08,9.29,9.09,13.44,16.37,15.94,13.35,4.58,26.88,3.87,40.36.54a90.42,90.42,0,0,0,11.89-3.69c3.67-1.47,6-.71,7.74,2.81,3.5,7.18,7.1,14.31,10.67,21.45,1.58,3.16,1.37,5.92-2.14,7.49-28.91,12.94-58.68,18.12-89.14,6.63-24.24-9.14-38.15-27.84-42.55-53.16-4.62-26.54.24-50.94,20.08-70.46,18.21-17.92,40.85-23.49,65.74-21,16,1.6,30.55,6.83,41.79,18.95,13,14.08,15.81,30.34,9.21,48.16-3.2,8.66-10.17,13.81-18.27,17.51-13.41,6.11-27.76,8.05-42.27,8.74C221.7,277.76,212.21,277.39,201.66,277.39Zm-1.63-29c3.83,0,7.36.39,10.78-.07,11.16-1.5,22.47-2.55,33.34-5.26,7.52-1.87,9.54-10.85,4.67-17.06a18.88,18.88,0,0,0-7.4-5.62C221.67,212.3,200.6,226.33,200,248.39Z"/><path class="cls-1" d="M376.42,95.2c-1.56.44-3.17.77-4.67,1.35C362.91,100,354,103.25,345.31,107c-9.34,4.06-18.29,9.1-27.76,12.81-8.23,3.23-16.89,5.4-25.47,7.64a11.09,11.09,0,0,1-13.54-6.74q-11.32-28-22.14-56.15c-2.17-5.67-.24-12,4.78-14.42C274,43.86,286.61,36,300.26,32.64a209.53,209.53,0,0,0,37.58-13.47c8.74-4,17.07-9.19,26.28-12.24,7.94-2.62,16.07-4.71,24.21-6.6a10.83,10.83,0,0,1,13,6.85q11.37,28.23,22.28,56.63a11.44,11.44,0,0,1-5.73,14.46c-11.62,5.52-23.35,10.8-35.09,16.07A40,40,0,0,1,376.65,96Zm-13.1-7c9.21-.53,9.36-.56,8.63-10C370.7,62,365.38,47.39,355,34.72c-7.77-9.53-7.66-9.4-16.86-1.49-3,2.59-3.06,4.5-.76,7.42,9.49,12,14.95,25.79,17.24,40.91C355.74,88.66,355.93,88.63,363.32,88.2ZM283.27,51l-1.69.29a19.68,19.68,0,0,0-.86,4q-.08,32.42,22.62,55.61c1,1,2.7,1.48,4.07,2.19l.84-1Q295.77,81.57,283.27,51ZM391,17.28l1.93-.07c.85-1.32,2.72-3.05,2.38-3.88-.94-2.3-2.8-4.22-4.3-6.29-1.16,1.14-3.47,2.54-3.28,3.37C388.26,12.82,389.81,15,391,17.28Zm22.4,45.15-2,.15c-.8,1.36-2.56,3.15-2.19,4,1,2.27,2.88,4.14,4.41,6.17,1.11-1.2,3.32-2.66,3.12-3.55C416.16,66.83,414.56,64.68,413.37,62.43Z"/><path class="cls-1" d="M1024.82,183.44c-5.79-3.12-11-6.18-16.49-8.82-16.7-8.07-34.16-13-52.92-12.39-13.87.46-26.75,3.92-37.15,13.56C904,189,901.26,205.89,904.79,224c6.2,31.85,25.21,55.31,50.77,73.86,22.22,16.13,46.73,26.17,74.83,24.52,14.94-.87,28.14-6.15,39.06-16.71,1.36-1.31,3.64-1.81,5.58-2.35a9.87,9.87,0,0,1,4,0c3.55.54,8.93,0,10.25,2.08,3.39,5.31,5.6,11.42,1.62,18.19-10.48,17.79-26.3,27.48-46.14,30.77-24.26,4-47.06-1.76-68.51-12.75-37.62-19.28-66-47.51-81.33-87.51a88.25,88.25,0,0,1-4.38-49.6c5-24.66,24.47-41.62,50.43-45,31-4.08,58,5.86,83.16,22.85C1024.31,182.38,1024.39,182.69,1024.82,183.44Z"/><path class="cls-1" d="M1238.71,289.21h-22.47c1.49-12.23,2.94-24.22,4.41-36.2.42-3.47,1-6.93,1.3-10.41.56-6.74-2.83-9.95-9.62-9.26a12.28,12.28,0,0,0-11.2,11c-1.8,13-3.32,26.09-5,39.14-.22,1.8-.52,3.59-.82,5.64H1173c1.25-10.34,2.46-20.38,3.66-30.42.62-5.13,1.32-10.24,1.83-15.38.8-8.08-3.91-12-11.67-9.57-5.32,1.63-8.3,5.46-9,10.87-1.61,12.05-3.06,24.11-4.57,36.17-.33,2.64-.68,5.28-1.07,8.26h-22.46c2.9-23.74,5.8-47.43,8.72-71.36h21.77c-.38,3.5-.73,6.78-1.27,11.74,6.5-7.63,12.65-13.43,21.89-14.08,10.8-.74,15.76,2.09,20.6,12.47,1.58-1.5,3.08-2.9,4.56-4.31a28.41,28.41,0,0,1,20.27-8.28c12.46,0,19.3,6.19,18.83,18.63-.4,10.45-2.06,20.86-3.27,31.27C1240.84,273,1239.76,280.92,1238.71,289.21Z"/><path class="cls-1" d="M1098.56,225.09q2.16-17.24,4.34-34.49h22.49c-4,32.9-8,65.52-12.07,98.46h-21.67c.29-3.27.57-6.47.86-9.66l-1-.55c-1.38,1.59-2.65,3.29-4.16,4.75-8.68,8.39-19,10.07-30.06,6.32-9.54-3.25-13-11.55-13.86-20.78-1.16-12.84.71-25.32,7-36.74,5.7-10.28,14.25-16.49,26.36-17.13,8.8-.46,16,2.22,20.67,10.53Zm-33.35,32.55c.84,13.22,9.2,20.23,19.31,15.05,3.36-1.72,7-5.41,7.93-8.88a89.09,89.09,0,0,0,2.51-22c0-5.13-3.81-8.24-9-9.2-5.87-1.08-12.14,1.21-14.77,6.82S1067.16,251.55,1065.21,257.64Z"/><path class="cls-1" d="M1037.06,289.22h-24.53c-1-5.42-2.06-10.75-2.89-16.11-.39-2.59-1.41-3.65-4.18-3.6-10,.15-20-.09-30,.2a6.71,6.71,0,0,0-4.64,3.15c-2.07,3.71-3.49,7.79-5.55,12.59-5.72-4-11.06-7.63-16.14-11.56-.8-.62-1-3.05-.5-4.18,10.64-22.91,21.31-45.8,32.26-68.57,4.05-8.43,12.65-12.07,23.27-10.73,7.61,1,12.34,5.66,14.47,15,6.21,27.24,12.28,54.5,18.4,81.75A13,13,0,0,1,1037.06,289.22ZM1005.52,251c-2.44-14-4.77-27.39-7.09-40.75l-1-.13c-5.71,13.5-11.41,27-17.29,40.88Z"/><path class="cls-1" d="M1398.92,245.82c.16-1.14.32-2.11.44-3.09.78-6.58-.65-10-5-11.79-5.1-2.15-12-.35-15.61,3.53a9.35,9.35,0,0,1-5.57,2.8c-5.13.38-10.31.13-15.94.13,1.73-7.69,5.89-13.37,12.37-16.84,12.72-6.8,26.23-7.19,39.67-2.6,8.44,2.88,12.12,10,11.7,18.5-.55,11.12-2.11,22.19-3.33,33.27-.72,6.44-1.62,12.86-2.45,19.39h-20.6c.26-3.17.5-6.07.83-10.13-2.24,2-3.55,3.21-4.9,4.36-6.32,5.4-13.54,8.37-22,8-7.84-.3-15.24-2-18.65-10-3.5-8.19-1.77-16.1,3.65-23,4.92-6.24,12.06-8.85,19.57-10C1381.54,247.23,1390,246.71,1398.92,245.82Zm-2,11.67a73.11,73.11,0,0,0-8.3.48c-4.39.73-9,1.24-13,2.9-4.23,1.72-6,5.81-5.09,10.36s4.74,5.55,8.83,5.65C1390.3,277.17,1397.33,269.65,1397,257.49Z"/><path class="cls-1" d="M1443,190.61h22.53c-4,33-8.07,65.79-12.09,98.56h-22.55C1434.94,256.13,1439,223.38,1443,190.61Z"/><path class="cls-1" d="M1315.79,289.13h-22.58c3-24,5.88-47.73,8.81-71.55h21.63c-.33,3.75-.64,7.31-1.08,12.34,7.88-10.3,17-15.39,29.53-13.15-1.56,6.11-3.09,12.15-4.65,18.27-3.28,0-6.25-.21-9.18,0-11.1.93-16.7,6.47-18,17.57C1318.77,264.68,1317.3,276.71,1315.79,289.13Z"/><path class="cls-1" d="M1285.69,217.67c-3,24.07-5.85,47.63-8.77,71.44h-22.53l8.75-71.44Z"/><path class="cls-1" d="M827.13,257.49c6.7,6.25,1.87,20.16-10.35,21.67-6,.74-12.2.13-18.77.13,4-13.84,7.77-27.22,11.76-40.54a4.19,4.19,0,0,1,3.13-2.17,101.7,101.7,0,0,1,12,0c3.66.2,7.54.52,9.27,4.55,1.83,4.26.47,8.21-2.09,11.69C830.81,254.5,829,255.77,827.13,257.49Zm-18.8,14.93c2.91,0,5.63.44,8.12-.11,4.13-.9,5.13-4.32,4.93-8.06s-3.31-2.73-5.61-3.14c-3.59-.63-5,1.11-5.63,4.36C809.74,267.71,809,269.9,808.33,272.42Zm4.88-17c4.14-1.2,7.47-1.42,9.77-3.08,1.75-1.26,2.19-4.34,3.2-6.62a47.28,47.28,0,0,0-5.75-2.21c-1.19-.31-2.57.09-3.95.18C815.51,247.14,814.59,250.44,813.21,255.38Z"/><path class="cls-1" d="M846.63,236.85c.91,5.64,1.75,10.87,2.78,17.23,3-4.56,6-8.14,8-12.19,2.74-5.53,6.83-6.42,12.8-4.85-4.53,6.38-8.71,12.7-13.35,18.66a45.93,45.93,0,0,0-8.46,17.22c-1.73,6.82-1.93,6.76-10.52,6.15,8.39-14,2.13-27.89-.11-42.22Z"/><path class="cls-1" d="M1266.31,190.58h22.82c-.63,5.08-1.23,9.91-1.86,15h-22.64C1265.19,200.6,1265.73,195.77,1266.31,190.58Z"/></g></g></svg>
